<svg xmlns="http://www.w3.org/2000/svg" width="250" height="250" fill="none" viewBox="0 0 250 250">
<!-- SVG created with Arrow, by QuiverAI (https://quiver.ai) -->
  <path d="m10.68 182.1h4.34c2.72 0 3.95 0.82 3.95 2.84 0 1.2-0.53 2.02-1.6 2.45 1.44 0.33 2.14 1.2 2.14 2.59 0 2.11-1.34 3.17-4.06 3.17h-4.77v-11.05zm4.06 4.75c1.82 0 2.82-0.53 2.82-1.84 0-1.34-0.77-1.73-2.7-1.73h-2.82v3.57h2.7zm0.54 5.12c1.95 0 2.83-0.62 2.83-2.07 0-1.35-0.9-1.9-2.9-1.9h-3.17v3.97h3.24z" fill="#001E2B"/>
  <path d="m24.43 182.1h1.56l4.72 11.05h-1.46l-1.21-3.03h-5.77l-1.24 3.03h-1.44l4.84-11.05zm3.08 6.8-2.34-5.74-2.43 5.74h4.77z" fill="#001E2B"/>
  <path d="m32.47 182.1h4.61c2.99 0 4.4 1.31 4.4 4.01 0 1.89-0.82 3.14-2.38 3.73l2.21 3.31h-1.58l-1.94-3.13c-0.3 0.04-0.62 0.06-0.95 0.06h-3.01v3.07h-1.36v-11.05zm4.69 6.76c2.11 0 2.96-1.23 2.96-2.9 0-1.85-0.91-2.68-2.99-2.68h-3.3v5.58h3.33z" fill="#001E2B"/>
  <path d="m43.82 182.1h4.61c2.99 0 4.4 1.31 4.4 4.01 0 1.89-0.82 3.14-2.38 3.73l2.21 3.31h-1.58l-1.94-3.13c-0.3 0.04-0.62 0.06-0.95 0.06h-3.01v3.07h-1.36v-11.05zm4.69 6.76c2.11 0 2.96-1.23 2.96-2.9 0-1.85-0.91-2.68-2.99-2.68h-3.3v5.58h3.33z" fill="#001E2B"/>
  <path d="m55.2 182.1h1.36v11.05h-1.36v-11.05z" fill="#001E2B"/>
  <path d="m58.83 192.3v-1.43c1.03 0.69 2.58 1.15 4.11 1.15 1.81 0 2.75-0.72 2.75-1.98 0-0.92-0.64-1.48-2.25-1.98l-1.43-0.48c-1.78-0.61-2.63-1.59-2.63-2.96 0-1.77 1.39-2.84 3.97-2.84 1.17 0 2.36 0.31 3.21 0.77v1.37c-1.01-0.63-2.19-0.97-3.27-0.97-1.76 0-2.61 0.59-2.61 1.72 0 0.85 0.59 1.41 2.03 1.91l1.47 0.53c2.03 0.74 2.86 1.5 2.86 2.96 0 1.88-1.41 3.2-4.05 3.2-1.52 0-3.08-0.43-4.16-0.97z" fill="#001E2B"/>
  <path d="m71.12 183.3h-4.2v-1.2h9.82v1.2h-4.21v9.85h-1.41v-9.85z" fill="#001E2B"/>
  <path d="m78.58 182.1h7.56v1.19h-6.23v4.18h5.83v1.13h-5.83v3.36h6.37v1.19h-7.7v-11.05z" fill="#001E2B"/>
  <path d="m88.22 182.1h4.61c2.99 0 4.4 1.31 4.4 4.01 0 1.89-0.82 3.14-2.38 3.73l2.21 3.31h-1.58l-1.94-3.13c-0.3 0.04-0.62 0.06-0.95 0.06h-3.01v3.07h-1.36v-11.05zm4.69 6.76c2.11 0 2.96-1.23 2.96-2.9 0-1.85-0.91-2.68-2.99-2.68h-3.3v5.58h3.33z" fill="#001E2B"/>
  <path d="m98.52 192.3v-1.43c1.03 0.69 2.58 1.15 4.11 1.15 1.81 0 2.75-0.72 2.75-1.98 0-0.92-0.64-1.48-2.25-1.98l-1.43-0.48c-1.78-0.61-2.63-1.59-2.63-2.96 0-1.77 1.39-2.84 3.97-2.84 1.17 0 2.36 0.31 3.21 0.77v1.37c-1.01-0.63-2.19-0.97-3.27-0.97-1.76 0-2.61 0.59-2.61 1.72 0 0.85 0.59 1.41 2.03 1.91l1.47 0.53c2.03 0.74 2.86 1.5 2.86 2.96 0 1.88-1.41 3.2-4.05 3.2-1.52 0-3.08-0.43-4.16-0.97z" fill="#001E2B"/>
  <path d="m115.8 182.1h1.56l4.72 11.05h-1.46l-1.21-3.03h-5.77l-1.24 3.03h-1.44l4.84-11.05zm3.08 6.8-2.34-5.74-2.43 5.74h4.77z" fill="#001E2B"/>
  <path d="m123.1 182.1h1.24l6.48 8.77v-8.77h1.28v11.05h-1.14l-6.58-8.96v8.96h-1.28v-11.05z" fill="#001E2B"/>
  <path d="m134.4 182.1h4.4c4.4 0 5.81 2.34 5.81 5.47 0 3.31-1.9 5.58-5.85 5.58h-4.36v-11.05zm4.26 9.84c3.16 0 4.59-1.9 4.59-4.43 0-2.71-1.23-4.2-4.65-4.2h-2.84v8.63h2.9z" fill="#001E2B"/>
  <path d="m149.7 192.3v-1.43c1.03 0.69 2.58 1.15 4.11 1.15 1.81 0 2.75-0.72 2.75-1.98 0-0.92-0.64-1.48-2.25-1.98l-1.43-0.48c-1.78-0.61-2.63-1.59-2.63-2.96 0-1.77 1.39-2.84 3.97-2.84 1.17 0 2.36 0.31 3.21 0.77v1.37c-1.01-0.63-2.19-0.97-3.27-0.97-1.76 0-2.61 0.59-2.61 1.72 0 0.85 0.59 1.41 2.03 1.91l1.47 0.53c2.03 0.74 2.86 1.5 2.86 2.96 0 1.88-1.41 3.2-4.05 3.2-1.52 0-3.08-0.43-4.16-0.97z" fill="#001E2B"/>
  <path d="m159.3 187.6c0-3.67 2.29-5.84 5.55-5.84 3.5 0 5.17 2.34 5.17 5.88 0 3.62-2.2 5.68-5.43 5.68-3.4 0-5.29-2.26-5.29-5.72zm9.34-0.02c0-2.85-1.34-4.62-3.89-4.62-2.71 0-4.09 1.77-4.09 4.58 0 2.74 1.29 4.59 3.98 4.59 2.65 0 4-1.82 4-4.55z" fill="#001E2B"/>
  <path d="m172.6 182.1h1.32v9.84h6.2v1.21h-7.52v-11.05z" fill="#001E2B"/>
  <path d="m182 182.1h1.36v11.05h-1.36v-11.05z" fill="#001E2B"/>
  <path d="m185.4 187.8c0-3.67 2.08-5.92 5.47-5.92 1.67 0 2.97 0.62 3.88 1.5l-0.41 1.23c-1.03-1-2.11-1.53-3.49-1.53-2.66 0-4.07 1.8-4.07 4.66 0 2.77 1.55 4.43 3.94 4.43 1.79 0 2.85-0.85 3.71-1.81l0.42 1.17c-0.92 1.06-2.32 1.86-4.21 1.86-3.27 0-5.24-2.18-5.24-5.59z" fill="#001E2B"/>
  <path d="m197.1 182.1h1.36v11.05h-1.36v-11.05z" fill="#001E2B"/>
  <path d="m203.9 183.3h-4.2v-1.2h9.82v1.2h-4.21v9.85h-1.41v-9.85z" fill="#001E2B"/>
  <path d="m209.5 187.6c0-3.67 2.29-5.84 5.55-5.84 3.5 0 5.17 2.34 5.17 5.88 0 3.62-2.2 5.68-5.43 5.68-3.4 0-5.29-2.26-5.29-5.72zm9.34-0.02c0-2.85-1.34-4.62-3.89-4.62-2.71 0-4.09 1.77-4.09 4.58 0 2.74 1.29 4.59 3.98 4.59 2.65 0 4-1.82 4-4.55z" fill="#001E2B"/>
  <path d="m222.8 182.1h4.61c2.99 0 4.4 1.31 4.4 4.01 0 1.89-0.82 3.14-2.38 3.73l2.21 3.31h-1.58l-1.94-3.13c-0.3 0.04-0.62 0.06-0.95 0.06h-3.01v3.07h-1.36v-11.05zm4.69 6.76c2.11 0 2.96-1.23 2.96-2.9 0-1.85-0.91-2.68-2.99-2.68h-3.3v5.58h3.33z" fill="#001E2B"/>
  <path d="m233.6 192.3v-1.43c1.03 0.69 2.58 1.15 4.11 1.15 1.81 0 2.75-0.72 2.75-1.98 0-0.92-0.64-1.48-2.25-1.98l-1.43-0.48c-1.78-0.61-2.63-1.59-2.63-2.96 0-1.77 1.39-2.84 3.97-2.84 1.17 0 2.36 0.31 3.21 0.77v1.37c-1.01-0.63-2.19-0.97-3.27-0.97-1.76 0-2.61 0.59-2.61 1.72 0 0.85 0.59 1.41 2.03 1.91l1.47 0.53c2.03 0.74 2.86 1.5 2.86 2.96 0 1.88-1.41 3.2-4.05 3.2-1.52 0-3.08-0.43-4.16-0.97z" fill="#001E2B"/>
  <path d="m5.49 143.8c0-11.79 7.67-19.94 18.39-19.94 11.09 0 20.11 7.75 20.11 19.21 0 11.79-7.67 20.43-18.98 20.43-11.09 0-19.52-7.35-19.52-19.7zm30.32-0.33c0-10.13-4-17.64-12.38-17.64-8.22 0-11.55 8.43-11.55 17.81 0 9.66 3.89 17.83 11.93 17.83 8.22 0 12-8.38 12-18z" fill="#0B3246"/>
  <path d="m47.66 135c4.05-1.63 5.62-4.7 5.62-6.39 0 0-5.62 0.59-5.62-3.57 0-2.36 1.51-3.28 3.25-3.03 3.01 0.44 4.05 2.19 4.05 4.93 0 3.83-1.97 7.49-6.5 9.73l-0.8-1.67z" fill="#0B3246"/>
  <path d="m59.07 161.2c2.95-0.46 3.74-1.26 3.85-4.22l2.37-27.67c-0.12-1.97-1.1-2.77-5.27-3.1v-1.63h10.19l13.4 27.95 11.85-27.95h10.35v1.63c-3.73 0.45-3.79 1.07-3.67 2.87l1.31 27.73c0.11 2.6 0.46 3.8 3.53 4.27l-0.12 1.63h-14.93v-1.63c3.99-0.52 4.62-1.32 4.56-4.1l-0.57-27.73-13.3 33.46h-1.69l-14.62-32.84-1.14 26.02c-0.18 3.47 0.56 4.61 4.04 5.19v1.63h-10.14v-1.51z" fill="#0B3246"/>
  <path d="m110.2 156.8c0-4.45 2.08-6.58 9.26-8.32l5.19-1.31v-3.93c0-3.94-1.25-6.3-3.73-6.3-2.9 0-3.99 1.91-3.99 4.6 0 0.86-0.23 1.84-0.63 2.7-0.68 0.57-1.48 0.92-2.56 0.92-1.57 0-2.83-0.92-2.83-2.82 0-3.09 5.3-7.54 11.47-7.54 5.89 0 8.14 3.33 8.14 8.81v12.34c0 2.19 0.8 3.33 3.93 2.13l0.46 1.46c-1.91 2.36-3.76 3.99-5.84 3.99-2.2 0-3.71-1.63-4-5.02-1.91 2.74-4.27 4.87-7.71 4.87-4.46 0-7.16-2.73-7.16-6.58zm14.45-0.57v-7.81l-4.11 1.31c-3.44 1.14-4.13 2.88-4.13 4.96 0 2.54 1.69 4.33 3.99 4.33 1.91 0 3.22-0.91 4.25-2.79z" fill="#0B3246"/>
  <path d="m135.8 161.1c3.27-0.46 3.9-1.03 3.9-3.39v-29.48c0-1.97-0.69-2.89-3.9-3v-1.85l9.83-2.02v36.06c0 2.6 0.86 3.22 3.87 3.68v1.57h-13.7v-1.57z" fill="#0B3246"/>
  <path d="m151.2 161.1c3.27-0.46 3.9-1.03 3.9-3.39v-29.48c0-1.97-0.69-2.89-3.9-3v-1.85l9.83-2.02v36.06c0 2.6 0.86 3.22 3.87 3.68v1.57h-13.7v-1.57z" fill="#0B3246"/>
  <path d="m167.8 150.1c0-8.82 6.94-15.3 13.54-15.3s9.73 4.62 9.38 11.04l-0.68 1.14-16.33 0.86c-0.06 0.29-0.06 0.64-0.06 0.98 0.06 5.84 3.55 10.4 8.79 10.4 3.27 0 5.52-1.51 7.32-3.99l1.03 1.69c-3.07 3.99-6.56 6.53-11.44 6.53-6.82 0-11.55-5.31-11.55-13.35zm17.29-5c0.68-4.4-0.72-8.28-4.57-8.28-3.84 0-6.09 3.68-6.66 8.57l11.23-0.29z" fill="#0B3246"/>
  <path d="m195.6 173.3c0-2.25 1.14-2.82 3.05-2.79 3.21 0.06 3.9-0.35 6.44-6.65l0.8-2.2-8.93-21.54c-0.86-2.13-1.38-2.76-3.86-3.39v-1.46h12.56v1.46c-3.59 0.74-3.24 2.05-2.38 4.25l5.48 14.06 4.95-12.4c1.45-3.79 0.77-5.05-2.3-5.91v-1.46h10.55v1.46c-2.31 0.92-2.99 1.78-4.08 4.41l-11.22 27.86c-2.02 5.01-4.04 6.86-7.58 6.86-2.32 0-3.48-0.92-3.48-2.56z" fill="#0B3246"/>
  <path d="m225.2 161.6-0.17-7.56h1.79c1.4 5.07 4 7.43 7.54 7.43 3.01 0 4.47-1.69 4.47-4.29 0-2.42-1.31-3.62-4.21-4.76l-2.9-1.2c-3.62-1.45-5.98-3.7-5.98-7.88 0-5.06 3.99-8.33 10-8.33 2.6 0 4.62 0.58 5.93 1.26l1.26 6.66-1.85 0.41c-1.31-4.05-3.28-6.3-6.12-6.3-2.6 0-4.34 1.74-4.34 4.05 0 2.48 1.25 3.56 4.04 4.76l3.16 1.4c3.99 1.69 6.36 3.6 6.31 8.11-0.06 5.18-4.17 8.19-10 8.19-3.21-0.01-6.38-0.81-8.93-1.95z" fill="#0B3246"/>
  <path d="m53.52 91.06c7.51-6.73 14.09-11.35 30.64-12.77 21.1-1.91 34.03 10.19 48.59 16.84 14.14 6.4 26.36 7.33 46.23 0.97-12.67 7.51-21.16 10.41-37.87 9.95-16.72-0.46-26.43-6.98-38.05-12.06-10.24-4.58-19.54-7.37-30.4-7.21-7.65 0-12.38 1.41-19.14 4.28z" fill="url(#paint0_linear_2132_21141)"/>
  <path d="m68.72 76.21c8.67-5.36 13.9-7.38 25.21-9.69 12.42-1.85 22.91 1.42 33.21 6.49 10.4 5.13 19.87 10.13 31.57 12.21s26.88 0.73 39.54-9.01c-6.03 8.55-19.1 15.92-35.39 18.34-14.93 2.31-24.4-1.52-38.73-9.9-12.22-7.41-21.75-11.99-33.39-13.9-8.55-1.14-13.35 0.17-22.02 5.46z" fill="url(#paint1_linear_2132_21141)"/>
  <path d="m97.14 61.9c7.05-4.09 11.11-5.55 19.27-5.38 11.21 0.29 17.69 3.62 27.63 8.98 11.94 6.85 27.83 11.91 43.17 6.73-6.76 5.07-15.2 7.43-25.29 6.51-10.78-1.13-18.23-5.83-27.7-12.11-8.16-5.35-15.34-7.94-25.11-8.4-4.4 0.12-7.78 1.32-11.97 3.67z" fill="url(#paint2_linear_2132_21141)"/>
  <defs>
    <linearGradient id="paint0_linear_2132_21141" x1="53.52" x2="179.7" y1="90.94" y2="90.94" gradientUnits="userSpaceOnUse">
      <stop stop-color="#61A8C1" offset="0"/>
      <stop stop-color="#88C4D7" offset="1"/>
    </linearGradient>
    <linearGradient id="paint1_linear_2132_21141" x1="68.72" x2="198.3" y1="81.08" y2="81.08" gradientUnits="userSpaceOnUse">
      <stop stop-color="#65B0CB" offset="0"/>
      <stop stop-color="#96CCDC" offset="1"/>
    </linearGradient>
    <linearGradient id="paint2_linear_2132_21141" x1="97.14" x2="187.2" y1="67.8" y2="67.8" gradientUnits="userSpaceOnUse">
      <stop stop-color="#99CCDB" offset="0"/>
      <stop stop-color="#B0D9E5" offset="1"/>
    </linearGradient>
  </defs>
</svg>