<svg xmlns="http://www.w3.org/2000/svg" width="250" height="250" viewBox="0 0 250 250">
<!-- SVG created with Arrow, by QuiverAI (https://quiver.ai) -->
  <path d="m124.6 6.42c-64.89 0-117.9 51.83-117.9 118.6 0 66.08 51.94 117.9 117.2 117.9 65.87 0 119.2-52.52 119.2-118 0-65.09-52.47-118.5-118.6-118.5z" fill="#68B2D5"/>
  <path d="m124.1 11.03c-61.11 0-112.6 49.78-112.6 114.3 0 63.4 50.07 112.6 112.3 112.6 63.06 0 114.2-50.37 114.2-112.9 0-62.31-50.14-114-113.9-114z" fill="#FEFFFE"/>
  <path d="m123.9 15.97c-58.61 0-107.6 47.84-107.6 109.4 0 60.59 48.48 107.4 107.7 107.4 60 0 109.6-48.18 109.6-107.9 0-59.19-48.16-108.9-109.8-108.9z" fill="#68B2D5"/>
  <path d="m125 48.56c-33.91 0-60.22 25.35-60.22 64.23 0 32.99 22.05 59.97 63.01 59.97h2.85l1.65-6.3c-2.31 0.38-4.6 0.55-6.84 0.55-24.16 0-36.57-23.28-36.57-56.98 0-28.11 10.95-54.74 35.11-54.74 23.26 0 37.64 21.41 37.64 57.08v0.01l21.71-20.26c-6.52-24.81-27.26-43.56-58.34-43.56z" fill="#FEFFFE"/>
  <path d="m144 127.5c11.06-4.38 22.21-12.87 33.09-24.54 12.2-13.2 25.58-17.13 37.22-18.38-14.58 9.71-33.87 35.4-35.31 67.99-15.55 6.14-27.87 13.51-43.74 28.32l-0.99-1.12 26.87-36.93c3.29 1.58 5.84-0.35 6.65-3.22 0.51-1.86-0.76-6.64-5.04-6.15-4.81 0.54-5.36 5.18-4.44 7.95l-25.23 37.28-1.02-0.47c7.53-17.51 11.28-29.64 11.94-50.73z" fill="#737373" stroke="#575756" stroke-miterlimit="10" stroke-width=".75"/>
  <path d="m144.8 128.3c11.05-4.38 21.06-12.87 31.95-24.54 10.84-11.63 21.13-15.36 32.13-17.58-13.1 6.76-25.51 21.91-42.98 47.35-3.4-2.55-9.07 0.57-7.66 7.68l-22.08 31.97c5.14-13.25 8.3-25.18 8.64-44.88z" fill="#B4B4B4" stroke="#575756" stroke-miterlimit="10" stroke-width=".5"/>
  <path d="m45.13 187.3c10.48-7.84 23.9-12.26 40.94-12.49 22.21-0.31 36.61 8.74 59.05 13.28 19.7 4.22 41.82 1.61 59.75-8.19-12.55 11.03-27.21 15.25-43.84 15.61-24.07 0.27-41.41-10.45-66.08-14.66-15.97-2.87-31.94-1.95-49.82 6.45z" fill="#FEFFFE"/>
  <path d="m53.94 192.1c10.94-5.21 20.12-5.94 30.96-5.24 19.87 1.28 37.09 10.83 56.59 13.82 15.43 2.61 28.18 0.86 46.22-4-11.53 6.96-25.3 9.49-37.65 9.41-21.04-0.19-36.55-10.05-57.3-14.47-12.63-2.87-23-2.95-38.82 0.48z" fill="#FEFFFE"/>
  <path d="m70.83 203.7c8.06-2.94 13.14-3.41 21.42-3.01 14.66 0.85 25.74 9.58 41.17 11.43 8.6 1.21 15.39 0.97 26.99-1.03-8.29 4.05-17.5 4.19-26.67 2.97-15.93-2.26-26.03-10.06-44.7-11.81-6.16-0.67-10.48-0.57-18.21 1.45z" fill="#FEFFFE"/>
</svg>